<svg width="411" height="1136" viewBox="0 0 411 1136" fill="none" xmlns="http://www.w3.org/2000/svg">
<path d="M367.406 948C215.714 694.774 137.289 550.951 41.9061 282L114.406 523.5L186.906 655.5L367.406 965L409.906 1135L336.906 972.5C172.8 800.607 88.8785 698.186 17.4061 472.5C45.4433 492.328 59.148 507.199 82.9061 535L17.4061 443.5L13.4061 398L41.9061 433.5L6.90613 378C-6.15741 230.733 2.78601 148.195 30.4061 1C48.9792 120.13 58.3641 186.988 118.406 303.5C153.376 385.607 176.349 430.473 238.906 503C248.472 554.79 249.761 583.077 251.906 633.5L266.406 536.5C317.979 691.456 344.285 779.568 367.406 948Z" fill="#FFEDED" fill-opacity="0.75" stroke="#743800" stroke-opacity="0.8"/>
</svg>
