<svg width="470" height="1203" viewBox="0 0 470 1203" fill="none" xmlns="http://www.w3.org/2000/svg">
<path d="M41 1000.92L385.5 226.42L41 1025.92L1 1202.42L2.0203 1198.81C21.7366 1128.95 33.1018 1088.69 68.5 1025.92C107.273 1009.42 187.983 992.579 229.5 932.92H184.5C214.231 921.911 221.21 912.841 229.5 895.42C322.468 724.134 358.725 625.7 405.5 447.42L310 492.92C363.873 460.587 392.024 437.096 433.5 372.42L405.5 387.42L468.5 160.92C456.985 58.7489 451.08 -8.82848 433.5 2.41985C420.156 -7.58055 386.047 34.9838 310 138.42C303.26 174.182 305.452 192.996 310 226.42C306.857 232.179 291.302 173.07 287.5 160.92C283.698 148.77 167 413.92 184.5 470.42C202 526.92 167 429.92 167 429.92C162.342 500.768 156.904 541.177 146.5 613.42V470.42C81.2787 606.078 48.2506 682.691 41 827.42L21 789.92C19.1027 874.248 19.6694 921.205 41 1000.92Z" fill="#FFEDED" fill-opacity="0.75" stroke="#743800" stroke-opacity="0.8"/>
</svg>
