<svg width="1440" height="322" viewBox="0 0 1440 322" fill="none" xmlns="http://www.w3.org/2000/svg">
<path fill-rule="evenodd" clip-rule="evenodd" d="M0 193.2L60 203.933C120 214.667 240 236.133 360 182.467C480 128.8 600 0 720 0C840 0 960 128.8 1080 150.267C1200 171.733 1320 85.8667 1380 42.9333L1440 0V322H1380C1320 322 1200 322 1080 322C960 322 840 322 720 322C600 322 480 322 360 322C240 322 120 322 60 322H0V193.2Z" fill="url(#paint0_linear)"/>
<defs>
<linearGradient id="paint0_linear" x1="720" y1="0" x2="720" y2="322" gradientUnits="userSpaceOnUse">
<stop stop-color="#FFEFEF"/>
<stop offset="1" stop-color="#FFEFEF" stop-opacity="0"/>
</linearGradient>
</defs>
</svg>
