<svg width="1909" height="1459" viewBox="0 0 1909 1459" fill="none" xmlns="http://www.w3.org/2000/svg">
<path d="M851 774L886.5 8.5L1909 104L1813.5 956L851 774Z" fill="#9F9F9F"/>
<path d="M919.451 41.5204L914.212 41.0454L914.004 46.3023L891.504 614.802L891.331 619.182L895.65 619.927L1782.65 772.927L1787.86 773.827L1788.47 768.57L1861.47 132.07L1862.05 126.983L1856.95 126.52L919.451 41.5204Z" fill="#2239D1" fill-opacity="0.65" stroke="#545454" stroke-width="10"/>
<path d="M862.073 1410.29L862.344 1410.37L862.622 1410.42C1026.3 1439.63 1088.17 1436.45 1157.86 1416.53C1170.42 1412.94 1172.14 1396.57 1161.83 1389.64C1097.31 1346.24 1059.9 1304.93 1003.8 1210.29C1003.64 1210.02 1003.49 1209.7 1003.38 1209.41C960.479 1088.88 954.512 1014.1 954.007 877.394C954 875.516 953.626 873.597 952.933 871.856C929.606 813.317 908.368 780.312 884.421 759.065C861.143 738.411 835.665 729.242 804.956 718.192C804.09 717.88 803.22 717.567 802.345 717.252C799.755 716.319 796.906 716.121 794.23 716.659C647.983 746.026 542.247 757.928 456.334 742.742C370.852 727.632 304.56 685.61 237.42 605.893C230.418 596.517 223.186 591.576 214.313 592.052C210.144 592.275 206.072 593.691 202.049 595.684C198.025 597.677 193.767 600.395 189.214 603.482C187.186 604.857 185.54 606.735 184.419 608.846L188.836 611.19L184.419 608.846C63.4254 836.805 47.0258 1000.32 26.1085 1208.87C20.311 1266.68 14.1664 1327.94 5.35151 1395C4.285 1403.11 9.98067 1410.7 18.0898 1411.92L22.8687 1412.63L23.0254 1412.65C321.174 1457.27 494.11 1483.15 796.527 1391.67C797.493 1391.38 798.539 1391.38 799.457 1391.65L862.073 1410.29Z" fill="#2239D1" stroke="#FFB6B6" stroke-width="10"/>
<path d="M1130 940L1251.5 852L1512 894L1453 1007.5L1130 940Z" fill="#C4C4C4"/>
<path d="M376.628 74.67C287.283 265.713 229.226 516.341 209.401 734.167C207.321 757.027 213.67 779.775 226.573 798.76L228.459 801.535C327.28 946.956 424.652 1090.24 735.304 850.388C755.209 835.02 767.96 812.146 771.504 787.249L772.448 780.618C820.77 441.201 858.298 177.592 731.193 58.3802C722.785 50.4943 712.375 45.122 701.485 41.3406C598.239 5.48873 534.112 -24.0379 417.282 32.7055C399.249 41.4642 385.121 56.51 376.628 74.67Z" fill="#E35C5C"/>
</svg>
